<mxfile host="app.diagrams.net" modified="2021-06-10T17:27:09.247Z" agent="5.0 (X11; Linux x86_64) AppleWebKit/537.36 (KHTML, like Gecko) Chrome/91.0.4472.101 Safari/537.36" etag="aLDQkREXC7K7i46_anLL" version="14.7.6" type="github">
  <diagram id="zvtmLEDYbtP8JX_s-heJ" name="Page-1">
    <mxGraphModel dx="1008" dy="652" grid="1" gridSize="10" guides="1" tooltips="1" connect="1" arrows="1" fold="1" page="1" pageScale="1" pageWidth="827" pageHeight="1169" math="0" shadow="0">
      <root>
        <mxCell id="0" />
        <mxCell id="1" parent="0" />
        <mxCell id="zlFq9SPbG-taWjbrSAC_-2" value="Planner" style="rounded=1;whiteSpace=wrap;html=1;" vertex="1" parent="1">
          <mxGeometry x="208" y="40" width="412" height="60" as="geometry" />
        </mxCell>
        <mxCell id="zlFq9SPbG-taWjbrSAC_-10" value="" style="edgeStyle=orthogonalEdgeStyle;rounded=0;orthogonalLoop=1;jettySize=auto;html=1;" edge="1" parent="1" source="zlFq9SPbG-taWjbrSAC_-2" target="zlFq9SPbG-taWjbrSAC_-3">
          <mxGeometry relative="1" as="geometry" />
        </mxCell>
        <mxCell id="zlFq9SPbG-taWjbrSAC_-23" value="" style="edgeStyle=orthogonalEdgeStyle;rounded=0;orthogonalLoop=1;jettySize=auto;html=1;" edge="1" parent="1" source="zlFq9SPbG-taWjbrSAC_-3" target="zlFq9SPbG-taWjbrSAC_-22">
          <mxGeometry relative="1" as="geometry" />
        </mxCell>
        <mxCell id="zlFq9SPbG-taWjbrSAC_-38" value="control_cmd" style="edgeLabel;html=1;align=center;verticalAlign=middle;resizable=0;points=[];" vertex="1" connectable="0" parent="zlFq9SPbG-taWjbrSAC_-23">
          <mxGeometry x="-0.4488" y="1" relative="1" as="geometry">
            <mxPoint as="offset" />
          </mxGeometry>
        </mxCell>
        <mxCell id="zlFq9SPbG-taWjbrSAC_-3" value="Controller 1" style="rounded=1;whiteSpace=wrap;html=1;" vertex="1" parent="1">
          <mxGeometry x="260" y="170" width="120" height="60" as="geometry" />
        </mxCell>
        <mxCell id="zlFq9SPbG-taWjbrSAC_-9" value="" style="edgeStyle=orthogonalEdgeStyle;rounded=0;orthogonalLoop=1;jettySize=auto;html=1;" edge="1" parent="1" source="zlFq9SPbG-taWjbrSAC_-2" target="zlFq9SPbG-taWjbrSAC_-4">
          <mxGeometry relative="1" as="geometry" />
        </mxCell>
        <mxCell id="zlFq9SPbG-taWjbrSAC_-35" value="desired_trajectory" style="edgeLabel;html=1;align=center;verticalAlign=middle;resizable=0;points=[];" vertex="1" connectable="0" parent="zlFq9SPbG-taWjbrSAC_-9">
          <mxGeometry x="-0.7153" y="-1" relative="1" as="geometry">
            <mxPoint x="51" y="-5" as="offset" />
          </mxGeometry>
        </mxCell>
        <mxCell id="zlFq9SPbG-taWjbrSAC_-24" value="" style="edgeStyle=orthogonalEdgeStyle;rounded=0;orthogonalLoop=1;jettySize=auto;html=1;" edge="1" parent="1" source="zlFq9SPbG-taWjbrSAC_-4" target="zlFq9SPbG-taWjbrSAC_-22">
          <mxGeometry relative="1" as="geometry" />
        </mxCell>
        <mxCell id="zlFq9SPbG-taWjbrSAC_-37" value="control_cmd&lt;br&gt;" style="edgeLabel;html=1;align=center;verticalAlign=middle;resizable=0;points=[];" vertex="1" connectable="0" parent="zlFq9SPbG-taWjbrSAC_-24">
          <mxGeometry x="0.594" y="1" relative="1" as="geometry">
            <mxPoint x="77" as="offset" />
          </mxGeometry>
        </mxCell>
        <mxCell id="zlFq9SPbG-taWjbrSAC_-4" value="Controller 2&lt;br&gt;" style="rounded=1;whiteSpace=wrap;html=1;" vertex="1" parent="1">
          <mxGeometry x="460" y="170" width="120" height="60" as="geometry" />
        </mxCell>
        <mxCell id="zlFq9SPbG-taWjbrSAC_-34" value="best_on_time_control_cmd" style="edgeStyle=orthogonalEdgeStyle;rounded=0;orthogonalLoop=1;jettySize=auto;html=1;" edge="1" parent="1" source="zlFq9SPbG-taWjbrSAC_-22" target="zlFq9SPbG-taWjbrSAC_-27">
          <mxGeometry x="-0.5" relative="1" as="geometry">
            <Array as="points">
              <mxPoint x="413" y="360" />
              <mxPoint x="413" y="360" />
            </Array>
            <mxPoint as="offset" />
          </mxGeometry>
        </mxCell>
        <mxCell id="zlFq9SPbG-taWjbrSAC_-22" value="Priority-based Control Bus" style="html=1;shadow=0;dashed=0;align=center;verticalAlign=middle;shape=mxgraph.arrows2.arrow;dy=0.6;dx=40;notch=0;" vertex="1" parent="1">
          <mxGeometry x="148" y="270" width="530" height="70" as="geometry" />
        </mxCell>
        <mxCell id="zlFq9SPbG-taWjbrSAC_-33" value="best_on_time_safe_control_cmd" style="edgeStyle=orthogonalEdgeStyle;rounded=0;orthogonalLoop=1;jettySize=auto;html=1;" edge="1" parent="1" source="zlFq9SPbG-taWjbrSAC_-27" target="zlFq9SPbG-taWjbrSAC_-30">
          <mxGeometry x="0.0176" y="46" relative="1" as="geometry">
            <mxPoint as="offset" />
          </mxGeometry>
        </mxCell>
        <mxCell id="zlFq9SPbG-taWjbrSAC_-27" value="Vehicle Safety Layer" style="rounded=1;whiteSpace=wrap;html=1;" vertex="1" parent="1">
          <mxGeometry x="207" y="380" width="412" height="60" as="geometry" />
        </mxCell>
        <mxCell id="zlFq9SPbG-taWjbrSAC_-30" value="Racecar&lt;br&gt;" style="ellipse;shape=doubleEllipse;margin=3;whiteSpace=wrap;html=1;align=center;" vertex="1" parent="1">
          <mxGeometry x="364" y="490" width="100" height="40" as="geometry" />
        </mxCell>
      </root>
    </mxGraphModel>
  </diagram>
</mxfile>
